<svg style="enable-background:new 0 0 66 66" viewBox="0 0 66 66" xml:space="preserve" xmlns="http://www.w3.org/2000/svg"><path d="M64 61H50.89c1.8-.94 3.04-2.83 3.04-5 0-.34-.04-.68-.1-1.01h7.19c1.92 0 3.48-1.56 3.48-3.48s-1.56-3.48-3.48-3.48h-.12v-7.57c0-2.69-2.13-4.89-4.78-5.01l-2.66-7.89c-.29-.86-1.1-1.44-2-1.44H41.02c-1.17 0-2.12.95-2.12 2.12v19.8H26.6v-2.22h2.12c1.21 0 2.19-.98 2.19-2.19v-9.2c0-.41-.11-.81-.33-1.16l-.16-.25 20.04-22.18c.04 0 .07.01.11.01.42 0 .82-.09 1.19-.23v4.49c-1.43.24-2.52 1.48-2.52 2.98 0 1.66 1.35 3.02 3.02 3.02s3.02-1.35 3.02-3.02c0-.28-.22-.5-.5-.5s-.5.22-.5.5c0 1.11-.91 2.02-2.02 2.02s-2.02-.91-2.02-2.02.91-2.02 2.02-2.02c.28 0 .5-.22.5-.5v-5.53C53.51 9.4 54 8.47 54 7.42 54 5.54 52.46 4 50.58 4c-1.5 0-2.77.98-3.23 2.33-.16.09-.3.19-.43.3l-21.14 19.1c-.4-.37-.92-.58-1.48-.58h-8.06c-1.21 0-2.19.98-2.19 2.19v5.48L5.4 34.13c-1.08.16-1.86 1.07-1.86 2.16v7.33c0 1.21.98 2.19 2.19 2.19h1.11v2.22H4.98c-1.92 0-3.48 1.56-3.48 3.48s1.56 3.48 3.48 3.48h4.48c-.06.33-.1.66-.1 1.01 0 2.17 1.24 4.06 3.04 5H2c-.28 0-.5.22-.5.5s.22.5.5.5h62c.28 0 .5-.22.5-.5s-.22-.5-.5-.5zM39.91 28.23c0-.61.5-1.12 1.12-1.12h10.44c.48 0 .9.31 1.06.76l2.77 8.23c.07.2.26.34.47.34h.13c2.21 0 4.02 1.8 4.02 4.02v7.57h-20v-19.8zm8.28-21.16c.01-.08.03-.17.06-.27.27-1.03 1.21-1.8 2.33-1.8C51.91 5 53 6.09 53 7.42s-1.09 2.42-2.42 2.42c-.08 0-.17-.02-.25-.03h-.01c-.46-.05-.87-.22-1.21-.48-.02-.01-.03-.02-.04-.04-.09-.08-.18-.16-.27-.25-.03-.03-.05-.06-.08-.1-.06-.08-.13-.16-.18-.24-.03-.05-.06-.11-.09-.17-.04-.07-.08-.15-.11-.22-.03-.08-.05-.17-.08-.25-.02-.06-.04-.12-.05-.18-.03-.15-.05-.31-.05-.47 0-.11.01-.23.03-.34zm-1.02.69c.01.09.03.17.04.25.01.05.01.1.03.15.04.19.1.38.17.56.02.05.04.09.06.13.06.13.13.26.21.38l.12.18c.08.11.16.21.25.31.09.09.18.18.27.26.07.06.15.13.22.18.09.07.19.13.29.19.05.03.09.05.14.08.11.06.22.12.34.17L29.87 32.13l-3.49-5.58L47.17 7.76zM5.73 44.81c-.65 0-1.19-.53-1.19-1.19V36.3c0-.59.42-1.08 1.01-1.17l9.09-1.38c.24-.04.43-.25.43-.49v-5.91c0-.65.53-1.19 1.19-1.19h8.06c.41 0 .79.21 1.01.56l4.06 6.5.36.57c.12.19.18.41.18.63v9.2c0 .65-.53 1.19-1.19 1.19H5.73zm19.88 1v2.22H7.84v-2.22h17.77zM4.98 53.99c-1.37 0-2.48-1.11-2.48-2.48 0-1.37 1.11-2.48 2.48-2.48h56.04c1.37 0 2.48 1.11 2.48 2.48 0 1.37-1.11 2.48-2.48 2.48h-7.47c-.81-2.12-2.86-3.64-5.27-3.64-2.4 0-4.46 1.51-5.27 3.64H20.28c-.81-2.12-2.86-3.64-5.27-3.64s-4.46 1.51-5.27 3.64H4.98zM10.36 56c0-.46.09-.89.21-1.31.57-1.92 2.33-3.33 4.43-3.33s3.86 1.41 4.43 3.33c.12.42.21.85.21 1.31 0 2.56-2.08 4.64-4.64 4.64s-4.64-2.08-4.64-4.64zm7.25 5c1.8-.94 3.04-2.83 3.04-5 0-.34-.04-.68-.1-1.01h22.18c-.06.33-.1.66-.1 1.01 0 2.17 1.24 4.06 3.04 5H17.61zm26.03-5c0-.46.09-.89.21-1.31.57-1.92 2.33-3.33 4.43-3.33 2.1 0 3.86 1.41 4.43 3.33.12.42.21.85.21 1.31 0 2.56-2.08 4.64-4.65 4.64-2.54 0-4.63-2.08-4.63-4.64z"/><path d="M50.96 30.45c-.21-.62-.79-1.04-1.45-1.04h-5.78c-.84 0-1.53.69-1.53 1.53v6.79c0 .84.69 1.53 1.53 1.53h8.07c.5 0 .95-.23 1.24-.64.29-.41.37-.91.21-1.38l-2.29-6.79zm1.27 7.59c-.1.14-.26.22-.43.22h-8.07c-.29 0-.53-.24-.53-.53v-6.79c0-.29.24-.53.53-.53h5.78c.23 0 .43.15.5.36l2.29 6.79c.06.16.03.34-.07.48zM15.01 53.27c-1.5 0-2.72 1.22-2.72 2.72s1.22 2.72 2.72 2.72 2.72-1.22 2.72-2.72-1.22-2.72-2.72-2.72zm0 4.45c-.95 0-1.72-.77-1.72-1.72s.77-1.72 1.72-1.72 1.72.77 1.72 1.72-.77 1.72-1.72 1.72zM48.29 53.27c-1.5 0-2.72 1.22-2.72 2.72s1.22 2.72 2.72 2.72 2.72-1.22 2.72-2.72-1.22-2.72-2.72-2.72zm0 4.45c-.95 0-1.72-.77-1.72-1.72s.77-1.72 1.72-1.72 1.72.77 1.72 1.72-.77 1.72-1.72 1.72zM24.15 29.02c-.26-.41-.7-.66-1.19-.66h-4.29c-.77 0-1.4.63-1.4 1.4v7.66c0 .77.63 1.4 1.4 1.4h7.64c.77 0 1.4-.63 1.4-1.4v-2.31c0-.26-.07-.52-.21-.74l-3.35-5.35zm2.56 8.41c0 .22-.18.4-.4.4h-7.64c-.22 0-.4-.18-.4-.4v-7.66c0-.22.18-.4.4-.4h4.29c.14 0 .27.07.34.19l3.34 5.35c.04.06.06.14.06.21v2.31zM10.65 36.76H7.5c-.28 0-.5.22-.5.5s.22.5.5.5h3.15c.28 0 .5-.22.5-.5s-.22-.5-.5-.5zM10.65 39.3H7.5c-.28 0-.5.22-.5.5s.22.5.5.5h3.15c.28 0 .5-.22.5-.5s-.22-.5-.5-.5zM10.65 41.84H7.5c-.28 0-.5.22-.5.5s.22.5.5.5h3.15c.28 0 .5-.22.5-.5s-.22-.5-.5-.5zM20.01 40.67h-1.82c-.28 0-.5.22-.5.5s.22.5.5.5h1.82c.28 0 .5-.22.5-.5s-.22-.5-.5-.5z"/></svg>