<?xml version="1.0" encoding="iso-8859-1"?>
<!-- Generator: Adobe Illustrator 19.0.0, SVG Export Plug-In . SVG Version: 6.00 Build 0)  -->
<svg version="1.1" id="Capa_1" xmlns="http://www.w3.org/2000/svg" xmlns:xlink="http://www.w3.org/1999/xlink" x="0px" y="0px"
	 viewBox="0 0 60.001 60.001" style="enable-background:new 0 0 60.001 60.001;" xml:space="preserve">
<g>
	<path d="M50.501,58v-4c0-0.552-0.448-1-1-1s-1,0.448-1,1v4h-1v-2c0-0.552-0.448-1-1-1s-1,0.448-1,1v2h-1v-4c0-0.552-0.448-1-1-1
		s-1,0.448-1,1v4h-1.026c-0.164-4.806-1.314-25.584-9.046-38.388c1.802-0.757,3.072-2.538,3.072-4.612
		c0-0.19-0.035-0.371-0.056-0.556l2.758-0.739l0.621-1.547l1.311,1.029l11.591-3.106l-0.259-0.966
		c-0.948-3.539-7.796-5.157-14.369-3.397c-3.284,0.88-6.326,2.564-8.406,4.633c-0.045,0.017-0.094,0.025-0.138,0.044
		c-1.294-2.768-3.938-5.567-7.162-7.518c-2.781-1.683-5.884-2.697-8.739-2.856C9.74-0.141,7.556,0.63,6.646,2.135L6.128,2.99
		l10.266,6.213l1.545-0.623l0.165,1.659l1.277,0.773c-1.718,0.009-3.523,0.235-5.283,0.707c-3.14,0.841-6.021,2.378-8.111,4.328
		c-2.129,1.986-3.09,4.099-2.634,5.798l0.259,0.966l11.591-3.105l0.621-1.547l1.311,1.029l2.627-0.704
		c-0.155,0.481-0.261,0.984-0.261,1.516c0,2.757,2.243,5,5,5c1.135,0,2.17-0.394,3.01-1.034c0.199,1.141,0.389,2.275,0.559,3.393
		c0.026,0.172,0.055,0.348,0.081,0.519c0.215,1.44,0.408,2.858,0.573,4.241c0.001,0.006,0.004,0.01,0.005,0.016
		c1.546,12.99,0.625,22.153-2.69,25.866h-0.538v-3c0-0.552-0.448-1-1-1s-1,0.448-1,1v3h-3.026c0.635-0.838,1.026-1.87,1.026-3
		c0-2.757-2.243-5-5-5s-5,2.243-5,5c0,1.13,0.391,2.162,1.026,3H1.501v2h25h14h18v-2L50.501,58L50.501,58z M13.501,55
		c0-1.654,1.346-3,3-3s3,1.346,3,3s-1.346,3-3,3S13.501,56.655,13.501,55z M29.161,21.789c0.027-0.069,0.037-0.141,0.061-0.21
		c0.071-0.21,0.143-0.42,0.185-0.641c0.06-0.31,0.094-0.623,0.094-0.938c0-0.034,0-0.067-0.001-0.101
		c0.022,0.004,0.045,0.003,0.067,0.007c0.247,0.048,0.497,0.082,0.752,0.091c0.409,0.642,0.796,1.314,1.17,2.003H29.2
		C29.186,21.931,29.174,21.858,29.161,21.789z M29.556,24h2.942c0.027,0.058,0.054,0.117,0.081,0.175
		c0.188,0.403,0.372,0.816,0.553,1.237c0.058,0.136,0.117,0.272,0.174,0.41c0.158,0.377,0.313,0.764,0.465,1.155
		c0.064,0.165,0.131,0.328,0.193,0.494c0.161,0.425,0.318,0.861,0.473,1.302c0.145,0.413,0.284,0.829,0.421,1.247
		c0.048,0.146,0.097,0.291,0.144,0.439c0.057,0.18,0.112,0.362,0.168,0.542h-4.558c-0.302-2.366-0.661-4.716-1.055-6.991
		C29.557,24.006,29.557,24.003,29.556,24z M30.851,33h4.909c0.65,2.336,1.188,4.698,1.632,7h-5.977
		C31.314,37.709,31.116,35.358,30.851,33z M31.484,42h6.275c0.431,2.482,0.755,4.854,1,7h-7.545
		C31.453,46.817,31.531,44.458,31.484,42z M30.789,17.971c-0.011,0.001-0.022-0.003-0.033-0.002L30.501,18
		c-0.857,0-1.493-0.371-1.879-0.685c-0.304-0.247-0.554-0.547-0.742-0.892c-0.003-0.005-0.009-0.009-0.012-0.014
		c-0.124-0.23-0.224-0.474-0.285-0.735l-0.032-0.205c-0.023-0.153-0.05-0.308-0.05-0.469c0-0.151,0.023-0.297,0.045-0.442
		c0.015-0.088,0.029-0.175,0.053-0.272l0.01-0.042c0.033-0.125,0.066-0.249,0.114-0.366c0.051-0.124,0.116-0.242,0.185-0.359
		c0.019-0.033,0.034-0.068,0.054-0.099c0.188-0.293,0.428-0.558,0.714-0.779l0.198-0.153c0.13-0.085,0.268-0.159,0.411-0.223
		l0.257-0.087c0.167-0.057,0.326-0.098,0.479-0.127C30.178,12.023,30.337,12,30.501,12c0.185,0,0.364,0.022,0.54,0.055
		c0.067,0.013,0.133,0.031,0.198,0.048c0.102,0.026,0.201,0.057,0.299,0.093c0.081,0.031,0.161,0.062,0.239,0.1
		c0.067,0.032,0.131,0.07,0.195,0.106c0.619,0.357,1.112,0.927,1.354,1.642l0.044,0.128c0.077,0.265,0.131,0.539,0.131,0.828
		C33.501,16.556,32.306,17.824,30.789,17.971z M37.616,7.65c5.101-1.368,9.696-0.375,11.328,1.106l-8.361,2.241l-2.622-2.059
		l-1.241,3.094l-1.885,0.505c-0.011-0.02-0.028-0.036-0.039-0.056c-0.127-0.215-0.268-0.415-0.424-0.608
		c-0.051-0.064-0.102-0.128-0.156-0.189c-0.145-0.163-0.301-0.312-0.466-0.454c-0.083-0.072-0.165-0.142-0.252-0.208
		c-0.154-0.117-0.315-0.221-0.482-0.319c-0.114-0.067-0.228-0.131-0.347-0.189c-0.157-0.076-0.317-0.142-0.482-0.202
		c-0.074-0.027-0.142-0.067-0.217-0.091C33.587,9.105,35.545,8.205,37.616,7.65z M16.574,6.975L9.177,2.498
		c0.785-0.376,1.985-0.554,3.365-0.479c2.497,0.139,5.345,1.075,7.814,2.57c3.554,2.151,5.668,4.971,6.529,6.977
		c-0.079,0.083-0.146,0.177-0.22,0.266c-0.081,0.097-0.168,0.19-0.241,0.292c-0.072,0.101-0.131,0.21-0.196,0.317
		c-0.013,0.022-0.027,0.043-0.04,0.065c-0.517-0.299-1.104-0.552-1.74-0.763l-4.453-2.696l-0.33-3.317L16.574,6.975z M14.961,14.938
		l-1.241,3.094l-8.352,2.237c0.272-0.826,0.971-1.815,1.983-2.76c1.829-1.706,4.477-3.112,7.265-3.859
		c1.667-0.446,3.313-0.641,4.827-0.641c1.585,0,3.023,0.216,4.193,0.577l1.879,1.137c-0.003,0.05-0.01,0.101-0.012,0.151
		l-0.586,0.157c-0.024-0.003-0.048,0.001-0.072-0.002C24.73,15.022,24.618,15,24.501,15c-0.059,0-0.114,0.015-0.172,0.017
		c-0.228,0.004-0.453,0.028-0.679,0.069c-0.081,0.014-0.162,0.025-0.242,0.043c-0.192,0.045-0.379,0.107-0.566,0.176
		c-0.13,0.046-0.26,0.087-0.385,0.143c-0.073,0.034-0.141,0.078-0.212,0.115c-0.207,0.106-0.412,0.212-0.6,0.344l-4.06,1.088
		L14.961,14.938z M24.501,23c-1.654,0-3-1.346-3-3c0-0.956,0.458-1.799,1.157-2.349l0.042-0.032c0.136-0.103,0.28-0.191,0.428-0.271
		c0.024-0.013,0.047-0.027,0.071-0.039c0.105-0.053,0.215-0.092,0.324-0.132c0.093-0.032,0.185-0.065,0.282-0.088
		c0.067-0.017,0.135-0.028,0.203-0.04c0.112-0.019,0.226-0.029,0.342-0.035c0.126-0.004,0.253-0.009,0.378,0.008l0.327,0.042
		l0.01-0.003c0.415,0.083,0.812,0.251,1.171,0.511c0.001,0.002,0.003,0.004,0.004,0.006c0.114,0.187,0.241,0.361,0.378,0.531
		c0.038,0.048,0.077,0.096,0.117,0.142c0.134,0.155,0.272,0.302,0.423,0.439c0.083,0.163,0.153,0.327,0.205,0.492
		c0.012,0.041,0.033,0.08,0.043,0.121c0.061,0.232,0.095,0.464,0.095,0.697c0,0.423-0.096,0.846-0.286,1.255
		c-0.001,0.002-0.001,0.004-0.002,0.006C26.736,22.285,25.704,23,24.501,23z M28.555,58c1.162-1.847,1.928-4.244,2.386-7h8.031
		c0.314,3.184,0.445,5.688,0.497,7H28.555z"/>
</g>
<g>
</g>
<g>
</g>
<g>
</g>
<g>
</g>
<g>
</g>
<g>
</g>
<g>
</g>
<g>
</g>
<g>
</g>
<g>
</g>
<g>
</g>
<g>
</g>
<g>
</g>
<g>
</g>
<g>
</g>
</svg>
